<?xml version="1.0" standalone="no"?><svg xmlns="http://www.w3.org/2000/svg" viewBox="0 0 1440 320"><path fill="#FFF" fill-opacity="1" d="M0,96L10.9,96C21.8,96,44,96,65,128C87.3,160,109,224,131,256C152.7,288,175,288,196,266.7C218.2,245,240,203,262,202.7C283.6,203,305,245,327,250.7C349.1,256,371,224,393,176C414.5,128,436,64,458,48C480,32,502,64,524,90.7C545.5,117,567,139,589,165.3C610.9,192,633,224,655,224C676.4,224,698,192,720,202.7C741.8,213,764,267,785,250.7C807.3,235,829,149,851,133.3C872.7,117,895,171,916,186.7C938.2,203,960,181,982,181.3C1003.6,181,1025,203,1047,197.3C1069.1,192,1091,160,1113,149.3C1134.5,139,1156,149,1178,144C1200,139,1222,117,1244,96C1265.5,75,1287,53,1309,53.3C1330.9,53,1353,75,1375,85.3C1396.4,96,1418,96,1429,96L1440,96L1440,320L1429.1,320C1418.2,320,1396,320,1375,320C1352.7,320,1331,320,1309,320C1287.3,320,1265,320,1244,320C1221.8,320,1200,320,1178,320C1156.4,320,1135,320,1113,320C1090.9,320,1069,320,1047,320C1025.5,320,1004,320,982,320C960,320,938,320,916,320C894.5,320,873,320,851,320C829.1,320,807,320,785,320C763.6,320,742,320,720,320C698.2,320,676,320,655,320C632.7,320,611,320,589,320C567.3,320,545,320,524,320C501.8,320,480,320,458,320C436.4,320,415,320,393,320C370.9,320,349,320,327,320C305.5,320,284,320,262,320C240,320,218,320,196,320C174.5,320,153,320,131,320C109.1,320,87,320,65,320C43.6,320,22,320,11,320L0,320Z"></path></svg>