<?xml version="1.0" standalone="no"?><svg xmlns="http://www.w3.org/2000/svg" viewBox="0 0 1440 320"><path fill="#FF0066" fill-opacity="1" d="M0,32L17.1,26.7C34.3,21,69,11,103,58.7C137.1,107,171,213,206,256C240,299,274,277,309,245.3C342.9,213,377,171,411,149.3C445.7,128,480,128,514,112C548.6,96,583,64,617,48C651.4,32,686,32,720,69.3C754.3,107,789,181,823,192C857.1,203,891,149,926,112C960,75,994,53,1029,69.3C1062.9,85,1097,139,1131,186.7C1165.7,235,1200,277,1234,288C1268.6,299,1303,277,1337,266.7C1371.4,256,1406,256,1423,256L1440,256L1440,320L1422.9,320C1405.7,320,1371,320,1337,320C1302.9,320,1269,320,1234,320C1200,320,1166,320,1131,320C1097.1,320,1063,320,1029,320C994.3,320,960,320,926,320C891.4,320,857,320,823,320C788.6,320,754,320,720,320C685.7,320,651,320,617,320C582.9,320,549,320,514,320C480,320,446,320,411,320C377.1,320,343,320,309,320C274.3,320,240,320,206,320C171.4,320,137,320,103,320C68.6,320,34,320,17,320L0,320Z"></path></svg>